<svg width="724" height="903" viewBox="0 0 724 903" fill="none" xmlns="http://www.w3.org/2000/svg">
<path d="M509.544 60.1131L510.205 60.6062L510.991 60.8603C566.138 78.7074 598.418 124.699 620.485 166.854C625.984 177.359 630.821 187.567 635.216 196.997C635.969 198.61 636.709 200.204 637.439 201.774C640.952 209.334 644.211 216.346 647.284 222.398C650.967 229.652 654.582 235.936 658.324 240.33C659.899 242.18 661.697 243.925 663.72 245.244C663.008 247.314 662.626 249.636 662.441 252.04C661.973 258.144 662.69 266.189 664.143 275.493C667.062 294.19 673.193 319.368 680.327 347.293C682.085 354.173 683.904 361.224 685.755 368.396C698.978 419.643 713.79 477.047 718.987 522.179C719.122 537.245 718.32 550.63 710.379 567.152C692.626 596.835 663.813 629.289 622.445 666.757L621.282 667.811L620.929 669.34C615.903 691.144 609.609 702.857 603.449 712.242C602.07 714.343 600.65 716.387 599.22 718.447C594.291 725.542 589.235 732.82 585.292 743.235L584.799 744.537L585.05 745.906C588.577 765.16 583.765 777.353 575.921 787.195C571.875 792.273 566.952 796.801 561.607 801.406C560.339 802.499 559.038 803.603 557.72 804.72C553.598 808.218 549.316 811.851 545.385 815.69L544.164 816.883L543.927 818.573C540.657 841.877 520.15 861.132 488.175 875.014C456.438 888.793 414.745 896.633 372.012 897.837C329.291 899.041 285.947 893.6 250.936 881.154C215.769 868.652 189.997 849.464 180.606 823.865L180.247 822.887L179.527 822.133C178.105 820.646 176.685 819.166 175.27 817.693C164.103 806.064 153.332 794.847 145.7 783.284C137.18 770.374 133.128 757.841 136.505 744.666L137.075 742.441L135.759 740.559C121.058 719.536 108.109 698.24 103.398 671.456L103.113 669.837L101.924 668.703C99.0984 666.01 96.2703 663.325 93.4482 660.645C60.9924 629.83 29.3417 599.779 12.484 567.431C7.319 557.454 3.91002 547.405 5.31995 535.999L5.34853 535.768L5.35549 535.535C6.87682 484.653 24.5468 416.984 39.7089 358.919C40.1543 357.214 40.5975 355.516 41.0381 353.828C48.7097 324.429 55.5912 297.692 58.9789 277.595C60.6667 267.582 61.5509 258.872 61.1238 252.161C60.9104 248.807 60.3542 245.648 59.209 242.98C59.1554 242.856 59.1002 242.731 59.0433 242.607C67.8822 237.032 73.901 227.377 79.2159 216.331C82.1839 210.163 85.0709 203.244 88.1181 195.941C88.4517 195.141 88.7872 194.337 89.1249 193.529C92.5696 185.285 96.2877 176.511 100.708 167.414C118.28 131.245 147.026 89.7669 212.704 60.6748L213.199 60.4557L213.635 60.136C260.445 25.8273 308.099 6.35059 357 5.06774C405.854 3.78612 456.558 20.6472 509.544 60.1131Z" fill="white" stroke="#31003B" stroke-width="10"/>
<path d="M502.404 90.3242L502.471 90.3735L502.549 90.3989C554.674 107.267 584.907 150.654 605.254 189.519C610.339 199.232 614.803 208.657 618.837 217.31C619.533 218.803 620.217 220.273 620.888 221.719C624.107 228.644 627.056 234.988 629.837 240.464C633.195 247.077 636.328 252.464 639.422 256.098C641.923 259.035 644.468 260.907 647.15 261.271C646.503 261.843 645.971 262.601 645.545 263.516C644.798 265.118 644.353 267.235 644.158 269.787C643.766 274.895 644.36 281.887 645.68 290.337C648.32 307.246 653.888 330.132 660.434 355.753C662.04 362.04 663.705 368.492 665.401 375.062C677.53 422.057 691.213 475.075 695.988 516.772C696.124 530.959 695.406 544.049 687.618 560.173C671.057 587.917 644.287 618.02 606.174 652.538L606.057 652.643L606.022 652.796C601.299 673.284 595.327 684.462 589.438 693.434C588.072 695.514 586.706 697.482 585.357 699.425C580.893 705.856 576.621 712.01 573.203 721.04L573.153 721.17L573.178 721.307C576.633 740.165 571.879 752.524 563.989 762.424C560.032 767.389 555.279 771.743 550.343 775.994C549.129 777.04 547.904 778.08 546.676 779.121C542.924 782.306 539.155 785.503 535.665 788.912L535.543 789.031L535.519 789.2C532.219 812.715 511.722 831.199 482.008 844.099C452.319 856.988 413.564 864.235 374.042 865.349C334.521 866.462 294.273 861.441 261.6 849.827C228.912 838.207 203.905 820.026 194.682 794.889L194.646 794.791L194.574 794.716C193.278 793.359 191.977 792.005 190.676 790.651C180.484 780.041 170.333 769.474 163.118 758.543C154.991 746.23 150.646 733.537 154.144 719.893L154.201 719.67L154.069 719.482C140.524 700.113 128.217 679.989 123.738 654.526L123.709 654.364L123.59 654.25C120.97 651.753 118.341 649.258 115.713 646.764C86.1176 618.674 56.602 590.661 40.8194 560.376C35.9166 550.908 32.386 540.821 33.8241 529.188L33.8269 529.165L33.8276 529.142C35.236 482.039 51.53 419.65 65.374 366.642C65.8049 364.993 66.2334 363.352 66.659 361.721C73.7044 334.724 79.957 310.416 83.0251 292.215C84.5586 283.118 85.303 275.512 84.9424 269.845C84.762 267.011 84.3039 264.632 83.5103 262.783C82.8864 261.33 82.0466 260.187 80.9589 259.421C90.1372 255.694 96.2128 246.839 101.918 234.983C104.588 229.435 107.19 223.199 109.992 216.484C110.296 215.756 110.602 215.022 110.911 214.283C114.071 206.722 117.516 198.59 121.621 190.142C138.03 156.371 164.989 117.526 226.277 90.3803L226.327 90.3584L226.37 90.3265C269.729 58.5492 314.189 40.2783 360.062 39.075C405.93 37.8717 453.273 53.731 502.404 90.3242Z" fill="#31003B" stroke="#31003B"/>
<path d="M226.234 89.6153C110.445 211.123 218.349 190.129 139.783 326.326C118.281 406.489 188.625 545.395 224.095 549.315C232.19 549.965 237.669 544.007 244.526 531.175C275.03 474.085 415.807 430.94 486.481 534.169C490.182 539.576 494.342 547.771 500.91 548.29C550.841 545.556 613.353 381.618 589.081 326.996C509.106 180.824 616.976 205.255 504.073 90.1587C412.888 20.5852 320.32 18.1723 226.234 89.6153Z" fill="white" stroke="#31003B" stroke-width="2"/>
<path d="M556.39 298.725C564.698 302.516 571.709 308.428 575.713 319.263C588.086 351.296 583.189 381.135 574.266 410.463C566.585 423.152 557.631 435.089 535.183 439.053C478.608 442.479 422.605 444.774 396.224 388.749C381.82 351.974 387.922 316.969 405.271 305.51C412.758 298.947 422.516 295.792 433.859 295.016L532.397 294.693C541.934 294.918 550.375 296.754 556.39 298.725Z" stroke="#31003B" stroke-width="10"/>
<path d="M171.601 297.968C163.293 301.76 156.281 307.671 152.278 318.507C139.905 350.539 144.801 380.379 153.725 409.707C161.407 422.396 170.361 434.334 192.807 438.297C249.384 441.723 305.386 444.019 331.767 387.993C346.17 351.219 340.069 316.213 322.72 304.754C315.234 298.191 305.475 295.035 294.132 294.259L195.593 293.937C186.057 294.162 177.616 295.998 171.601 297.968Z" stroke="#31003B" stroke-width="10"/>
<path d="M290.693 294.016L432.764 294.728C421.935 295.778 412.304 298.269 405.798 304.517L322.546 304.16C313.711 297.274 303.384 293.319 290.693 294.016Z" fill="#31003B" stroke="#31003B" stroke-width="0.461071"/>
<path d="M237.794 148.973C333.566 132.439 415.676 137.173 492.464 148.973V150.354C451.262 142.859 406.176 139.456 368.043 132.973C325.46 138.367 281.297 143.298 237.794 150.354V148.973Z" fill="#31003B" stroke="#31003B" stroke-width="2"/>
<path d="M246.862 183.102C335.814 168.003 412.075 172.327 483.396 183.102V184.361C445.127 177.517 403.252 174.41 367.835 168.491C328.285 173.417 287.267 177.918 246.862 184.361V183.102Z" fill="#31003B" stroke="#31003B" stroke-width="2"/>
<path d="M289.181 549.466L292.227 540.991L301.218 534.269L318.62 534.123L341.533 530.909L365.026 534.416L391.709 530.47L408.821 533.539L427.094 534.416L436.665 539.676L439.565 548.736L428.254 544.353L401.135 552.243L366.621 556.92L334.572 553.997L302.378 543.33L289.181 549.466Z" fill="white" stroke="#31003B" stroke-width="0.0790539"/>
<path d="M313.309 602.54L352.553 610.385L352.606 610.395L352.66 610.394L376.264 609.973L376.315 609.972L376.365 609.961L417.702 600.665L404.88 647.171L381.211 680.874L366.343 685.622L350.631 681.076L326.341 649.057L313.309 602.54Z" fill="white" stroke="#31003B"/>
</svg>
