<?xml version="1.0" standalone="no"?>
<!DOCTYPE svg PUBLIC "-//W3C//DTD SVG 1.1//EN" "http://www.w3.org/Graphics/SVG/1.1/DTD/svg11.dtd">
<svg xmlns:inkscape="http://www.inkscape.org/namespaces/inkscape" xmlns:sodipodi="http://sodipodi.sourceforge.net/DTD/sodipodi-0.dtd" xmlns="http://www.w3.org/2000/svg" xmlns:svg="http://www.w3.org/2000/svg" width="210" height="297" viewBox="0 0 210 297" version="1.1" id="svg5" xml:space="preserve" sodipodi:docname="pf_light_darkPurple.svg" inkscape:version="1.2.2 (732a01da63, 2022-12-09)"><sodipodi:namedview id="namedview7" pagecolor="#ffffff" bordercolor="#000000" borderopacity="0.25" inkscape:showpageshadow="2" inkscape:pageopacity="0.0" inkscape:pagecheckerboard="0" inkscape:deskcolor="#d1d1d1" inkscape:document-units="mm" showgrid="false" inkscape:zoom="0.51276154" inkscape:cx="251.57893" inkscape:cy="623.09665" inkscape:window-width="1920" inkscape:window-height="1001" inkscape:window-x="-9" inkscape:window-y="-9" inkscape:window-maximized="1" inkscape:current-layer="layer1"/><defs id="defs2"/><g inkscape:label="Camada 1" inkscape:groupmode="layer" id="layer1"><g style="fill:#ffffff;fill-opacity:1;fill-rule:evenodd;stroke:#31003b;stroke-width:7.70399;stroke-dasharray:none;stroke-opacity:1" id="g220" transform="matrix(0.28335952,0,0,0.28335952,99.259807,-42.777884)"><path d="m 158.20865,312.70302 c -98.403996,-73.291 -189.797996,-63.63713 -276.628,0 -122.8464,54.4109 -108.1374,155.7869 -146.2796,169.4069 22.7277,10.253 -43.5589,172.52 -46.46757,269.797 -1.45598,11.777 2.12442,21.971 7.04797,31.48 17.2321,33.066 50.7768,63.415 82.8693,94.005 4.4991,25.576 16.8609,45.774 30.4149,65.157 -7.094,27.673 17.686,51.362 40.552,75.29198 37.194,101.372 328.456,89.325 341.802,-5.792 18.47,-18.03498 44.62,-30.03798 37.656,-68.05198 8.851,-23.378 23.364,-27.209 32.839,-68.308 38.138,-34.54 64.952,-64.688 81.549,-92.498 7.852,-16.245 8.567,-29.437 8.43,-43.67 -10.89,-95.147 -68.127,-249.165 -47.506,-255.963 -25.027,3.304 -41.641,-136.9937 -146.279,-170.8549 z" fill="#8c52ff" id="path202" style="fill:#ffffff;fill-opacity:1;fill-rule:evenodd;stroke:#31003b;stroke-width:7.70399;stroke-dasharray:none;stroke-opacity:1"/></g><g style="fill:none" id="g42" transform="matrix(0.26458333,0,0,0.26458333,17.224191,38.697936)"><path d="m 469.703,53.9231 c -98.404,-73.291 -189.798,-63.63713 -276.628,0 C 70.2286,108.334 84.9376,209.71 46.7954,223.33 69.5231,233.583 3.2365,395.85 0.327833,493.127 c -1.455983,11.777 2.124417,21.971 7.047967,31.48 17.2321,33.066 50.7768,63.415 82.8693,94.005 4.4991,25.576 16.8609,45.774 30.4149,65.157 -7.094,27.673 17.686,51.362 40.552,75.292 37.194,101.372 328.456,89.325 341.802,-5.792 18.47,-18.035 44.62,-30.038 37.656,-68.052 8.851,-23.378 23.364,-27.209 32.839,-68.308 38.138,-34.54 64.952,-64.688 81.549,-92.498 7.852,-16.245 8.567,-29.437 8.43,-43.67 C 652.598,385.594 595.361,231.576 615.982,224.778 590.955,228.082 574.341,87.7843 469.703,53.9231 Z" fill="#8c52ff" id="path9" style="fill:#31003b;fill-opacity:1"/><path d="M 193.234,53.6153 C 77.4449,175.123 185.349,154.129 106.783,290.326 c -21.5018,80.163 48.842,219.069 84.312,222.989 8.095,0.649 13.574,-5.308 20.431,-18.14 30.504,-57.09 171.281,-100.235 241.955,2.994 3.701,5.407 7.861,13.602 14.429,14.121 49.931,-2.734 112.443,-166.672 88.171,-221.294 C 476.106,144.824 583.976,169.255 471.073,54.1587 379.888,-15.4148 287.32,-17.8277 193.234,53.6153 Z" fill="#ffffff" stroke="#8c52ff" stroke-width="2" id="path11" style="stroke:#31003b;stroke-opacity:1"/><path d="m 523.39,262.725 c 8.308,3.791 15.319,9.703 19.323,20.538 12.373,32.033 7.476,61.872 -1.447,91.2 -7.681,12.689 -16.635,24.626 -39.083,28.59 -56.575,3.426 -112.578,5.721 -138.959,-50.304 -14.404,-36.775 -8.302,-71.78 9.047,-83.239 7.487,-6.563 17.245,-9.718 28.588,-10.494 l 98.538,-0.323 c 9.537,0.225 17.978,2.061 23.993,4.032 z" stroke="#8c52ff" stroke-width="10" id="path13" style="stroke:#31003b;stroke-opacity:1"/><path d="m 138.601,261.969 c -8.308,3.791 -15.32,9.703 -19.323,20.538 -12.373,32.032 -7.477,61.872 1.447,91.2 7.682,12.689 16.636,24.628 39.082,28.591 56.577,3.425 112.579,5.721 138.96,-50.305 14.403,-36.774 8.302,-71.78 -9.047,-83.239 -7.486,-6.563 -17.245,-9.718 -28.588,-10.495 l -98.539,-0.322 c -9.536,0.226 -17.977,2.061 -23.992,4.032 z" stroke="#8c52ff" stroke-width="10" id="path15" style="stroke:#31003b;stroke-opacity:1"/><path d="m 257.693,258.016 142.071,0.712 c -10.829,1.05 -20.46,3.541 -26.966,9.789 l -83.252,-0.356 c -8.835,-6.887 -19.162,-10.842 -31.853,-10.145 z" fill="#8c52ff" stroke="#8c52ff" stroke-width="0.461071" id="path17" style="stroke:#31003b;stroke-opacity:1;fill:#31003b;fill-opacity:1"/><path d="m 204.794,112.973 c 95.772,-16.534 177.882,-11.8 254.67,0 v 1.382 C 418.262,106.859 373.176,103.456 335.043,96.9736 292.46,102.368 248.297,107.299 204.794,114.355 Z" fill="#8c52ff" stroke="#8c52ff" stroke-width="2" id="path19" style="stroke:#31003b;stroke-opacity:1;fill:#31003b;fill-opacity:1"/><path d="m 213.862,147.102 c 88.952,-15.099 165.213,-10.775 236.534,0 v 1.259 c -38.269,-6.844 -80.144,-9.951 -115.561,-15.87 -39.55,4.925 -80.568,9.427 -120.973,15.87 z" fill="#8c52ff" stroke="#8c52ff" stroke-width="2" id="path21" style="stroke:#31003b;stroke-opacity:1;fill:#31003b;fill-opacity:1"/><path d="m 256.181,513.466 3.046,-8.475 8.991,-6.722 17.402,-0.145 22.913,-3.215 23.493,3.507 26.683,-3.946 17.112,3.069 18.273,0.877 9.571,5.261 2.9,9.06 -11.311,-4.384 -27.119,7.891 -34.514,4.676 -32.049,-2.923 -32.194,-10.667 z" fill="#ffffff" stroke="#8c52ff" stroke-width="0.0790539" id="path23"/><path d="m 279.608,565.89 40.043,8.004 23.604,-0.421 42.151,-9.478 -13.067,47.392 -23.815,33.912 -15.174,4.845 -16.017,-4.634 -24.448,-32.227 z" fill="#ffffff" id="path25"/></g></g></svg>